Coordinates
version=1
nRows=27
nColumns=19
inDegrees=yes

Units are S.I. units (second, meters, Newtons, ...)
If the header above contains a line with 'inDegrees', this indicates whether rotational values are in degrees (yes) or radians (no).

endheader
time	pelvis_to_ground_rx	pelvis_to_ground_ry	pelvis_to_ground_rz	pelvis_to_ground_tx	pelvis_to_ground_ty	pelvis_to_ground_tz	left_hip_abduction	left_hip_rotation	left_hip_flexion	left_knee_flexion	left_ankle_flexion	left_subtalar_angle	right_hip_abduction	right_hip_rotation	right_hip_flexion	right_knee_flexion	right_ankle_flexion	right_subtalar_angle
      0.04000000	     95.87476104	     13.73362412	     -1.76774855	     -2.13787870	     -0.62287756	      0.70854205	     -6.56634818	     -6.88694976	     -3.77855429	    -39.55134032	      3.69825618	     -5.08581057	     -4.47010173	     -1.80443237	     26.69810649	    -19.06335104	     -5.14998841	     -4.73372507
      0.05000000	     94.69215322	     13.57279432	     -2.28155161	     -2.12416899	     -0.62477823	      0.70960569	     -4.97100479	     -5.00991200	     -1.17308992	    -43.75109657	      2.56823702	     -5.03708781	     -3.00044820	     -0.93794290	     26.33024949	    -18.92901272	     -4.46782173	     -5.17418609
      0.06000000	     93.44058670	     13.39138107	     -2.63189397	     -2.11052007	     -0.62667028	      0.71054946	     -3.44488621	     -3.31230563	      1.11030548	    -47.69564544	      1.30046055	     -5.02391812	     -1.46422608	     -0.02869872	     25.75498163	    -18.69677326	     -3.77830116	     -5.67363119
      0.07000000	     92.16918031	     13.17357464	     -2.92515509	     -2.09704006	     -0.62855462	      0.71152321	     -2.02148438	     -1.77795142	      3.24000920	    -51.41217295	      0.03705815	     -5.12556969	      0.11011615	      0.83984266	     25.05873263	    -18.32246785	     -3.16952888	     -6.11231227
      0.08000000	     90.90796585	     12.90625073	     -3.19588016	     -2.08380123	     -0.63042571	      0.71263486	     -0.72520922	     -0.36414831	      5.30261380	    -54.91504030	     -1.17989803	     -5.34265660	      1.69326208	      1.63340457	     24.24750078	    -17.75603862	     -2.64204160	     -6.44725041
      0.09000000	     89.67364713	     12.56067102	     -3.44403754	     -2.07083884	     -0.63228083	      0.71393285	      0.43563987	      1.01096739	      7.34212510	    -58.22019567	     -1.69317152	     -5.52395102	      3.25773249	      2.37612095	     23.29355206	    -16.95253393	     -2.40885374	     -6.49633561
      0.10000000	     88.53298835	     12.19458839	     -3.76607702	     -2.05817201	     -0.63412946	      0.71547583	      1.37216598	      2.22856788	      9.46110897	    -61.28583854	     -3.23857975	     -6.43317594	      4.75642888	      2.89698198	     22.29398778	    -15.92326463	     -1.88991236	     -6.54274009
      0.11000000	     87.46964364	     11.74836665	     -4.07138755	     -2.04580490	     -0.63596807	      0.71718755	      2.13092673	      3.48440629	     11.61908970	    -64.15406897	     -3.49077432	     -6.52104791	      6.16252509	      3.38784525	     21.14485873	    -14.65542796	     -1.76062145	     -6.47082081
      0.12000000	     86.53425331	     11.26204939	     -4.41405011	     -2.03370513	     -0.63779388	      0.71907670	      2.64635755	      4.68083582	     13.84885347	    -66.75138247	     -3.75628974	     -6.60228552	      7.43259097	      3.76317609	     19.89879320	    -13.15440054	     -1.64671615	     -6.32445086
      0.13000000	     85.74097338	     10.73894476	     -4.74803745	     -2.02186980	     -0.63960788	      0.72103926	      2.91400593	      5.82005746	     16.10975474	    -69.06777589	     -3.90951141	     -6.71829117	      8.54424892	      4.06240226	     18.55170720	    -11.51095086	     -1.59351206	     -6.07990083
      0.14000000	     85.10113101	     10.18307905	     -5.06165561	     -2.01027180	     -0.64140156	      0.72301236	      2.93279848	      6.89880376	     18.38102431	    -71.06790515	     -3.89880893	     -6.89060580	      9.47520112	      4.34062553	     17.11057570	     -9.76544377	     -1.60960174	     -5.71820501
      0.15000000	     84.61963718	      9.59246825	     -5.33488226	     -1.99888677	     -0.64315888	      0.72491392	      2.70988867	      7.91594337	     20.63072313	    -72.72836078	     -3.70763033	     -7.12195370	     10.21941520	      4.63234432	     15.59698651	     -8.00066423	     -1.67457127	     -5.29381534
      0.16000000	     84.29329157	      8.97439751	     -5.56528581	     -1.98770856	     -0.64486424	      0.72668364	      2.26032335	      8.85377731	     22.84726616	    -74.03125939	     -3.33238083	     -7.42868853	     10.77710296	      4.98173582	     14.05104799	     -6.29521296	     -1.77447573	     -4.81390286
      0.17000000	     84.11128003	      8.32931986	     -5.74818923	     -1.97672127	     -0.64649178	      0.72826020	      1.60951247	      9.70434642	     25.01280228	    -74.96561182	     -2.78795513	     -7.82137791	     11.16668151	      5.39088957	     12.51801011	     -4.74016886	     -1.87660807	     -4.31826902
      0.18000000	     84.04554784	      7.67782414	     -5.86965922	     -1.96591175	     -0.64802081	      0.72958736	      0.80428439	     10.41982902	     27.10078546	    -75.53430332	     -1.74452613	     -8.55920975	     11.44991000	      5.69390742	     11.05633671	     -3.44790569	     -1.97226125	     -3.62102644
      0.19000000	     84.08369516	      6.94646497	     -5.97089749	     -1.95528052	     -0.64941159	      0.73067757	     -0.13760026	     11.12253304	     29.13930749	    -75.72229077	     -1.30158176	     -8.93089889	     11.57586145	      6.30950943	      9.66188793	     -2.37254302	     -1.91033021	     -3.32488123
      0.20000000	     84.16422457	      6.20114833	     -6.00091121	     -1.94480171	     -0.65067034	      0.73146263	     -1.11800803	     11.69653136	     31.07075891	    -75.56513796	     -0.31986668	     -9.79586758	     11.67740572	      6.83549726	      8.36546740	     -1.61717057	     -1.78792121	     -3.00087850
      0.21000000	     84.30683761	      5.40838922	     -6.09898190	     -1.93448582	     -0.65175708	      0.73200953	     -2.17786103	     12.17182745	     33.02232454	    -75.04927929	      0.13153650	    -10.22872255	     11.68931746	      7.48758280	      7.27729695	     -1.13855256	     -1.66047764	     -2.83883467
      0.22000000	     84.45268515	      4.57837426	     -6.06310449	     -1.92425962	     -0.65267896	      0.73223722	     -3.18013167	     12.55155818	     34.76016248	    -74.20475128	      1.02062993	    -11.18546262	     11.71974108	      8.05344818	      6.20296938	     -0.95503434	     -1.32383172	     -2.73341862
      0.23000000	     84.58606959	      3.70816376	     -6.07545095	     -1.91414709	     -0.65343178	      0.73219596	     -4.13807198	     12.83796304	     36.48498844	    -73.05906215	      1.53775837	    -11.93495685	     11.75027748	      8.60884649	      5.30947446	     -1.01758953	     -0.94308460	     -2.64175767
      0.24000000	     84.71167735	      2.81355869	     -6.12983357	     -1.90410492	     -0.65402279	      0.73191742	     -5.03188662	     12.99860346	     38.15896235	    -71.61205467	      1.82695873	    -12.25799693	     11.77256830	      9.12627575	      4.55568589	     -1.26026122	     -0.70562788	     -2.58801363
      0.25000000	     84.79402030	      1.89356355	     -6.13408391	     -1.89407265	     -0.65447891	      0.73138090	     -5.77847753	     13.05804690	     39.66794864	    -69.89622511	      2.19898175	    -12.64044712	     11.83353797	      9.63365208	      3.79485694	     -1.60168609	     -0.31190230	     -2.56695774
      0.26000000	     84.82856517	      0.97241375	     -6.03010607	     -1.88400090	     -0.65482926	      0.73058415	     -6.33593121	     13.00740366	     40.92821534	    -67.93292463	      2.60015351	    -13.24081498	     11.95312793	     10.00253391	      2.97001563	     -2.05095568	      0.56036345	     -2.42984696
      0.27000000	     84.84186945	      0.03834237	     -6.02698333	     -1.87388803	     -0.65505963	      0.72964527	     -6.76981340	     12.81523041	     42.13067790	    -65.71188741	      2.65663848	    -13.29169975	     12.04979434	     10.43910403	      2.23304739	     -2.48406032	      0.83186835	     -2.34361433
      0.28000000	     84.80613882	     -0.89571780	     -5.96885582	     -1.86363774	     -0.65522809	      0.72852826	     -6.99907344	     12.52872667	     43.09706528	    -63.28395685	      2.67895032	    -13.26986514	     12.18806137	     10.91060909	      1.39493767	     -2.87770289	      1.34137359	     -2.26539371
      0.29000000	     84.73607263	     -1.81741828	     -5.85701179	     -1.85320469	     -0.65535854	      0.72726016	     -7.02905261	     12.13577738	     43.80547003	    -60.67569703	      2.57627616	    -13.08197541	     12.35498691	     11.37597370	      0.46093161	     -3.24316665	      1.99141112	     -2.13852366
      0.30000000	     84.67281410	     -2.72677520	     -5.68568962	     -1.84255101	     -0.65545165	      0.72584732	     -6.90988469	     11.65612552	     44.24132772	    -57.92641099	      2.30864512	    -12.49635838	     12.49704744	     11.58852224	     -0.48247394	     -3.73428948	      3.04828844	     -1.64754620
